Coordinates
version=1
nRows=8
nColumns=63
inDegrees=yes

Units are S.I. units (second, meters, Newtons, ...)
If the header above contains a line with 'inDegrees', this indicates whether rotational values are in degrees (yes) or radians (no).

endheader
time	pelvis_tilt	pelvis_list	pelvis_rotation	pelvis_tx	pelvis_ty	pelvis_tz	hip_flexion_r	hip_adduction_r	hip_rotation_r	knee_angle_r	knee_angle_r_beta	ankle_angle_r	subtalar_angle_r	mtp_angle_r	hip_flexion_l	hip_adduction_l	hip_rotation_l	knee_angle_l	knee_angle_l_beta	ankle_angle_l	subtalar_angle_l	mtp_angle_l	L5_S1_Flex_Ext	L5_S1_Lat_Bending	L5_S1_axial_rotation	L4_L5_Flex_Ext	L4_L5_Lat_Bending	L4_L5_axial_rotation	L3_L4_Flex_Ext	L3_L4_Lat_Bending	L3_L4_axial_rotation	L2_L3_Flex_Ext	L2_L3_Lat_Bending	L2_L3_axial_rotation	L1_L2_Flex_Ext	L1_L2_Lat_Bending	L1_L2_axial_rotation	L1_T12_Flex_Ext	L1_T12_Lat_Bending	L1_T12_axial_rotation	Abs_r3	Abs_r2	Abs_r1	Abs_t1	Abs_t2	neck_flexion	neck_bending	neck_rotation	arm_flex_r	arm_add_r	arm_rot_r	elbow_flex_r	pro_sup_r	wrist_flex_r	wrist_dev_r	arm_flex_l	arm_add_l	arm_rot_l	elbow_flex_l	pro_sup_l	wrist_flex_l	wrist_dev_l
1.661017	-0.422127	-3.106255	79.674824	0.264287	1.055365	0.146716	-2.342544	-3.342058	0.121743	10.063384	0.175639	24.782443	14.668348	0.000000	-5.263854	2.753593	-1.695428	3.004872	0.052445	26.360120	-11.534343	0.000000	0.235898	-0.270643	2.178131	0.438085	-0.359955	2.314264	0.387556	-0.658041	2.314264	0.269607	-0.658041	1.905865	0.219054	-0.551894	1.769731	0.134792	-0.419225	1.633598	1.684993	-3.061564	12.114111	0.000000	0.000000	21.666608	3.126588	-1.823736	1.880162	-19.121011	54.747344	61.581176	67.932420	21.766032	-9.666494	15.701777	-18.809722	73.539859	62.722077	74.114050	10.123563	-5.662352
1.677966	-0.368131	-3.149379	79.280161	0.265546	1.055251	0.148044	-2.148028	-3.258639	0.614008	10.140411	0.176984	24.860742	14.670253	0.000000	-5.132711	2.636952	-2.156850	3.094016	0.054001	26.474365	-11.319948	0.000000	0.233781	-0.270127	2.154401	0.434155	-0.359269	2.289052	0.384079	-0.656787	2.289052	0.267189	-0.656787	1.885101	0.217089	-0.550843	1.750451	0.133583	-0.418427	1.615801	1.669877	-3.055732	11.982135	0.000000	0.000000	21.592003	3.291869	-1.434248	1.792467	-19.287656	53.337645	62.635999	71.386763	21.852050	-8.940574	15.792389	-19.249418	73.170640	63.471068	75.232043	9.286558	-6.438813
1.694915	-0.310354	-3.196759	79.032155	0.266522	1.055034	0.149294	-1.988870	-3.164622	0.953057	10.188304	0.177819	24.956118	14.685135	0.000000	-4.988066	2.510963	-2.441617	3.182974	0.055553	26.609200	-11.171576	0.000000	0.232351	-0.268987	2.100929	0.431499	-0.357753	2.232237	0.381730	-0.654015	2.232237	0.265554	-0.654015	1.838313	0.215761	-0.548518	1.707005	0.132765	-0.416661	1.575697	1.659661	-3.042833	11.684735	0.000000	0.000000	21.567837	3.468729	-1.031272	1.574421	-19.539869	51.713975	63.941495	74.834372	21.863888	-8.122244	15.795130	-19.731122	72.648426	64.327504	76.360444	8.358822	-7.344781
1.711864	-0.249017	-3.250070	78.934156	0.267212	1.054711	0.150446	-1.865802	-3.060106	1.127459	10.206989	0.178146	25.054308	14.710919	0.000000	-4.826850	2.375743	-2.556596	3.277509	0.057203	26.766943	-11.084846	0.000000	0.231693	-0.267292	2.018362	0.430277	-0.355498	2.144510	0.380648	-0.649894	2.144510	0.264802	-0.649894	1.766067	0.215150	-0.545062	1.639919	0.132389	-0.414035	1.513771	1.654959	-3.023661	11.225524	0.000000	0.000000	21.590331	3.645145	-0.626783	1.212756	-19.874297	49.867452	65.499189	78.264566	21.747793	-7.298810	15.702174	-20.257818	71.947168	65.321666	77.357195	7.438360	-8.276165
1.728814	-0.183324	-3.301418	78.968104	0.267640	1.054305	0.151496	-1.782868	-2.947021	1.151426	10.201611	0.178052	25.150641	14.741186	0.000000	-4.657599	2.233430	-2.527668	3.383665	0.059056	26.951619	-11.054262	0.000000	0.230626	-0.264906	1.911476	0.428295	-0.352325	2.030943	0.378895	-0.644092	2.030943	0.263582	-0.644092	1.672542	0.214159	-0.540196	1.553074	0.131780	-0.410339	1.433607	1.647338	-2.996666	10.631057	0.000000	0.000000	21.629129	3.813452	-0.226877	0.717254	-20.293099	47.851618	67.312678	81.546584	21.395294	-6.545069	15.521034	-20.825698	71.066002	66.471609	78.051579	6.593574	-9.100572
1.745763	-0.117199	-3.344674	79.107548	0.267837	1.053849	0.152464	-1.734880	-2.833422	1.034566	10.185601	0.177772	25.240327	14.780233	0.000000	-4.489848	2.092237	-2.380246	3.495337	0.061005	27.145792	-11.086816	0.000000	0.228324	-0.261997	1.782213	0.424021	-0.348457	1.893602	0.375114	-0.637021	1.893602	0.260952	-0.637021	1.559437	0.212022	-0.534265	1.448048	0.130465	-0.405834	1.336660	1.630898	-2.963768	9.912136	0.000000	0.000000	21.647896	3.960258	0.191119	0.140333	-20.790718	45.781430	69.340762	84.431639	20.797467	-5.834383	15.249168	-21.433558	69.992978	67.787766	78.255791	5.862783	-9.677025
1.762712	-0.059158	-3.365641	79.333023	0.267845	1.053401	0.153385	-1.729913	-2.728689	0.825253	10.159067	0.177309	25.317552	14.805056	0.000000	-4.335387	1.961914	-2.187837	3.618265	0.063151	27.361858	-11.092303	0.000000	0.222642	-0.259605	1.626387	0.413468	-0.345275	1.728036	0.365778	-0.631204	1.728036	0.254457	-0.631204	1.423088	0.206745	-0.529387	1.321439	0.127217	-0.402129	1.219790	1.590307	-2.936707	9.045474	0.000000	0.000000	21.601096	4.113759	0.723948	-0.433354	-21.338738	43.778656	71.497156	86.684331	20.039690	-5.040271	14.905419	-22.102470	68.782151	69.273887	77.816730	5.194141	-10.009854
1.779661	0.000989	-3.371163	79.611472	0.267709	1.052976	0.154223	-1.754825	-2.624356	0.518781	10.132517	0.176846	25.385235	14.842333	0.000000	-4.192835	1.833317	-1.956893	3.757297	0.065577	27.599260	-11.105140	0.000000	0.215573	-0.256979	1.450915	0.400341	-0.341782	1.541597	0.354165	-0.624818	1.541597	0.246378	-0.624818	1.269551	0.200181	-0.524031	1.178868	0.123178	-0.398060	1.088186	1.539817	-2.906996	8.069553	0.000000	0.000000	21.480242	4.227521	1.253305	-1.002797	-21.937999	41.952787	73.726125	88.127246	19.070399	-4.281100	14.508683	-22.818242	67.482082	70.912707	76.722371	4.666569	-10.005630
